Coordinates
version=1
nRows=26
nColumns=22
inDegrees=yes

Units are S.I. units (second, meters, Newtons, ...)
If the header above contains a line with 'inDegrees', this indicates whether rotational values are in degrees (yes) or radians (no).

endheader
time	pelvis_tilt	pelvis_list	pelvis_rotation	pelvis_tx	pelvis_ty	pelvis_tz	hip_flexion_r	hip_adduction_r	hip_rotation_r	knee_angle_r	ankle_angle_r	subtalar_angle_r	hip_flexion_l	hip_adduction_l	hip_rotation_l	knee_angle_l	ankle_angle_l	subtalar_angle_l	lumbar_extension	lumbar_bending	lumbar_rotation
      1.89000000	      2.76944233	     -0.13849618	    135.41316168	     -0.58303952	      0.97885219	      0.61552750	     -8.61399336	     10.14624592	     11.03419272	    -22.40922809	     14.25442596	     -6.14674889	     25.05716368	     -4.17452217	     14.26899210	     -9.78275200	      4.44971456	     15.20584094	     -0.93037104	     -1.73089038	      7.40793320
      1.90000000	      2.78685353	     -0.41058008	    134.53109379	     -0.59098514	      0.97884286	      0.60714756	     -8.80780382	      9.75773255	     11.30990197	    -22.96865183	     13.47538380	     -5.25200492	     25.01049966	     -4.15316520	     13.73710081	    -10.73393915	      3.59976083	     14.85563464	     -0.42783013	     -1.98635750	      7.57162303
      1.91000000	      2.74264528	     -0.72691166	    133.69773422	     -0.59900533	      0.97909216	      0.59874686	     -8.91900853	      9.30152416	     11.44918918	    -23.65317394	     12.58939573	     -4.33067551	     24.95126616	     -4.03571996	     13.22151015	    -11.66252347	      2.71697207	     14.55874464	      0.07259707	     -2.31469155	      7.65451975
      1.92000000	      2.62969337	     -1.06776514	    132.92713386	     -0.60708994	      0.97960918	      0.59036107	     -8.95244532	      8.78630737	     11.38907932	    -24.47320888	     11.56346116	     -3.36597604	     24.87168182	     -3.82391506	     12.74608896	    -12.59504969	      1.91030109	     14.27629974	      0.54636008	     -2.70964918	      7.67597202
      1.93000000	      2.44738716	     -1.40809040	    132.22025722	     -0.61521014	      0.98038519	      0.58201812	     -8.91312026	      8.22836285	     11.10521816	    -25.44440742	     10.38068400	     -2.39715573	     24.75822668	     -3.53493359	     12.28754888	    -13.55204796	      1.27606097	     13.97787343	      0.96359501	     -3.15155396	      7.63477067
      1.94000000	      2.19402938	     -1.73900471	    131.55479474	     -0.62330447	      0.98140302	      0.57373352	     -8.78285087	      7.62482376	     10.58462369	    -26.60605509	      9.03583356	     -1.48198922	     24.58342506	     -3.18790259	     11.80557532	    -14.50197508	      0.85653942	     13.64708632	      1.30898483	     -3.63379140	      7.54063476
      1.95000000	      1.86793405	     -2.06906110	    130.91188352	     -0.63133807	      0.98263185	      0.56552183	     -8.54261944	      6.95251533	      9.80258492	    -27.96879617	      7.51054667	     -0.76311693	     24.32574030	     -2.78570079	     11.28941888	    -15.39697136	      0.64762181	     13.36161784	      1.58623956	     -4.16481156	      7.43369563
      1.96000000	      1.50425459	     -2.34382475	    130.30100145	     -0.63931153	      0.98404772	      0.55746206	     -8.21226352	      6.25814891	      8.77081277	    -29.51347130	      5.84426885	      0.06950114	     23.97138266	     -2.38291457	     10.72936174	    -16.23153267	      0.68272268	     12.84480580	      1.76256199	     -4.66092617	      7.27451083
      1.97000000	      1.08466987	     -2.63888175	    129.67226132	     -0.64713957	      0.98557680	      0.54955249	     -7.71573248	      5.44937218	      7.48102465	    -31.27849101	      4.01785830	      0.58542901	     23.50777856	     -1.93795648	     10.14545780	    -16.89454291	      0.85367298	     12.50800657	      1.89092008	     -5.20182433	      7.15610901
      1.98000000	      0.63022749	     -2.92865036	    129.02900062	     -0.65482061	      0.98717018	      0.54185956	     -7.06639485	      4.53699742	      5.96527285	    -33.23593296	      2.12505547	      0.98370826	     22.94113398	     -1.47497331	      9.51012961	    -17.39076462	      1.13889563	     12.06292638	      1.95581572	     -5.73889173	      7.03978023
      1.99000000	      0.14888588	     -3.21219933	    128.35826925	     -0.66230993	      0.98877257	      0.53440800	     -6.26568793	      3.51092138	      4.26879649	    -35.36465262	      0.23406082	      1.08597779	     22.28079378	     -1.00223339	      8.80702180	    -17.71591470	      1.49759140	     11.45364653	      1.95621093	     -6.26310608	      6.92294368
      2.00000000	     -0.34196846	     -3.52450844	    127.63480623	     -0.66954875	      0.99030826	      0.52719186	     -5.27797288	      2.35411727	      2.49203357	    -37.64806727	     -1.56713500	      0.94209090	     21.55741515	     -0.51767338	      8.07532963	    -17.84235502	      1.88350671	     10.96991714	      1.94110866	     -6.78651740	      6.84050683
      2.01000000	     -0.83919194	     -3.85794959	    126.85912983	     -0.67652336	      0.99173447	      0.52020967	     -4.12850511	      1.07895563	      0.71215569	    -40.04573076	     -3.09614747	      0.60036162	     20.79757433	     -0.02546407	      7.28042828	    -17.81585069	      2.27933951	     10.55225576	      1.90444333	     -7.30002096	      6.76671661
      2.02000000	     -1.33444964	     -4.20152282	    126.02894310	     -0.68319452	      0.99302967	      0.51343994	     -2.84184805	     -0.27868483	     -0.97875788	    -42.51368544	     -4.20510285	      0.09318957	     20.02350300	      0.46149743	      6.41961791	    -17.67688131	      2.67153395	     10.19423381	      1.84365165	     -7.79416987	      6.69199742
      2.03000000	     -1.81754259	     -4.54435184	    125.14490518	     -0.68953336	      0.99419359	      0.50684198	     -1.43991253	     -1.66787544	     -2.49708245	    -45.00625383	     -4.80764741	     -0.53517414	     19.24701014	      0.92993759	      5.51232585	    -17.45111117	      3.05483369	      9.90444649	      1.75978852	     -8.25820138	      6.60772311
      2.04000000	     -2.27602545	     -4.87220350	    124.21107730	     -0.69551714	      0.99523887	      0.50037252	      0.05455376	     -3.02766102	     -3.78827545	    -47.47467005	     -4.87990647	     -1.24955700	     18.47752515	      1.36137170	      4.56404418	    -17.16560531	      3.43397135	      9.68410064	      1.65265145	     -8.67918146	      6.51001408
      2.05000000	     -2.69521583	     -5.16897106	    123.24063542	     -0.70113668	      0.99619041	      0.49399162	      1.61844457	     -4.29170973	     -4.82986094	    -49.86935037	     -4.47684905	     -2.04013113	     17.71677073	      1.73840336	      3.60137038	    -16.83989191	      3.81704142	      9.51956489	      1.52024869	     -9.04114709	      6.39104203
      2.06000000	     -3.06675064	     -5.42371942	    122.24303687	     -0.70637222	      0.99708614	      0.48768029	      3.23579623	     -5.40747472	     -5.61489455	    -52.14860938	     -3.73819520	     -2.80703808	     16.97112085	      2.04784304	      2.61359005	    -16.49727538	      4.17839053	      9.41053788	      1.35910923	     -9.33672430	      6.24335000
      2.07000000	     -3.36047838	     -5.62572079	    121.23974620	     -0.71124602	      0.99794087	      0.48139687	      4.88646138	     -6.30848542	     -6.17309703	    -54.26105674	     -2.76844194	     -3.62615917	     16.23589114	      2.26446263	      1.65650703	    -16.13066925	      4.56752099	      9.31422977	      1.18463568	     -9.53577242	      6.05497088
      2.08000000	     -3.58823038	     -5.75897883	    120.23800562	     -0.71575478	      0.99881969	      0.47514190	      6.53574739	     -6.97679339	     -6.52572090	    -56.18325968	     -1.67504815	     -4.29221510	     15.49149375	      2.39158528	      0.72976091	    -15.75067218	      4.90491546	      9.25221137	      0.97143253	     -9.64529764	      5.84174894
      2.09000000	     -3.72317031	     -5.83967500	    119.26839369	     -0.71995772	      0.99968278	      0.46893759	      8.19440198	     -7.40178119	     -6.75649509	    -57.89572885	     -0.66616801	     -4.92496588	     14.78306338	      2.41991162	     -0.16892044	    -15.39941202	      5.27507683	      9.18646733	      0.75072362	     -9.64752165	      5.57937583
      2.10000000	     -3.77290378	     -5.87563431	    118.34755901	     -0.72391856	      1.00055507	      0.46274466	      9.83514080	     -7.60353713	     -6.92266551	    -59.37634373	      0.22081461	     -5.43241329	     14.08754407	      2.36330940	     -1.02023031	    -15.04126227	      5.64924440	      9.12945920	      0.53436873	     -9.55513424	      5.26695895
      2.11000000	     -3.76882872	     -5.85381054	    117.47554306	     -0.72763342	      1.00146322	      0.45661513	     11.42359967	     -7.61512477	     -7.04834938	    -60.63290458	      0.97740332	     -5.72994304	     13.38789948	      2.24480127	     -1.81728002	    -14.70141601	      5.99680598	      9.08634961	      0.27573283	     -9.39222387	      4.91051465
      2.12000000	     -3.71443836	     -5.80860516	    116.65694688	     -0.73116955	      1.00236029	      0.45050494	     12.97617202	     -7.48304846	     -7.17861570	    -61.66851739	      1.57649922	     -5.85979790	     12.69627705	      2.08426846	     -2.57828218	    -14.35649652	      6.31974174	      9.05419879	      0.02417515	     -9.17972762	      4.52016320
      2.13000000	     -3.62669102	     -5.73946044	    115.89884294	     -0.73456776	      1.00324976	      0.44444444	     14.47203282	     -7.24824924	     -7.34693222	    -62.48132401	      2.04833269	     -5.83730105	     12.00103445	      1.90034294	     -3.29402698	    -14.00146061	      6.61522370	      9.02890389	     -0.23986872	     -8.92968480	      4.09050064
      2.14000000	     -3.51531837	     -5.66269922	    115.19674954	     -0.73785626	      1.00410014	      0.43840349	     15.91674199	     -6.95126368	     -7.57299346	    -63.08003957	      2.42999711	     -5.68267573	     11.30370543	      1.70777396	     -3.98019551	    -13.62388515	      6.88326698	      9.00762715	     -0.49434716	     -8.66182630	      3.63442261
